# xmcd
#
# Track frame offsets:
#	150
#	44990
#	87318
#	136791
#	189440
#	219339
#
# Disc length: 3443 seconds
# Revision: 1
# Processed by: cddbd v1.5.2PL0 Copyright (c) Steve Scherf et al.
# Submitted via: dBpowerAMP V12.0
#
DISCID=520d7106
DTITLE=Lester Levenson - The Ultimate Goal Vol 01 CD 04
DYEAR=1966
DGENRE=Home Study
TTITLE0=Creating All You Desire pt 1
TTITLE1=Creating All You Desire pt 2
TTITLE2=Creating All You Desire pt 3
TTITLE3=The Effortless Miracle pt 1
TTITLE4=The Effortless Miracle pt 2
TTITLE5=The Effortless Miracle pt 3
EXTD=
EXTT0=
EXTT1=
EXTT2=
EXTT3=
EXTT4=
EXTT5=
PLAYORDER=
